<svg width="50" height="27" viewBox="0 0 50 27" fill="none" xmlns="http://www.w3.org/2000/svg">
<path d="M11.3897 16.3885H9.0518V14.9002H11.0088V14.285H9.0518V12.785H11.3077V12.1639H8.44243V17.0096H11.3897V16.3885ZM10.4581 11.6365C10.8526 11.6365 11.21 11.6951 11.5303 11.8123C11.8506 11.9295 12.1221 12.0897 12.3448 12.2928C12.5713 12.4959 12.7452 12.7342 12.8663 13.0076C12.9874 13.2772 13.0479 13.5643 13.0479 13.869V17.4315C13.0479 17.7361 12.9874 18.0252 12.8663 18.2986C12.7452 18.5682 12.5713 18.8045 12.3448 19.0076C12.1221 19.2108 11.8506 19.3709 11.5303 19.4881C11.21 19.6053 10.8526 19.6639 10.4581 19.6639H8.65337C8.25883 19.6639 7.90141 19.6053 7.5811 19.4881C7.26079 19.3709 6.98735 19.2108 6.76079 19.0076C6.53813 18.8045 6.36626 18.5682 6.24516 18.2986C6.12407 18.0252 6.06352 17.7361 6.06352 17.4315V13.869C6.06352 13.5643 6.12407 13.2772 6.24516 13.0076C6.36626 12.7342 6.53813 12.4959 6.76079 12.2928C6.98735 12.0897 7.26079 11.9295 7.5811 11.8123C7.90141 11.6951 8.25883 11.6365 8.65337 11.6365H10.4581ZM17.3194 12.1639H15.9073L15.3038 12.2342L14.9346 12.6092L14.8467 13.1014V16.0779L14.9346 16.5701L15.3155 16.9393L15.9073 17.0096H17.3194L18.0049 16.9276L17.8584 16.2947L17.3077 16.3885H15.9424L15.5557 16.3299L15.4737 15.9783V13.16L15.5323 12.8377L15.9424 12.7733H17.2842L17.8877 12.8729L18.0049 12.2459L17.3194 12.1639ZM17.3956 11.6365C17.7901 11.6365 18.1475 11.6951 18.4678 11.8123C18.7881 11.9295 19.0596 12.0897 19.2823 12.2928C19.5088 12.4959 19.6827 12.7342 19.8038 13.0076C19.9249 13.2772 19.9854 13.5643 19.9854 13.869V17.4315C19.9854 17.7361 19.9249 18.0252 19.8038 18.2986C19.6827 18.5682 19.5088 18.8045 19.2823 19.0076C19.0596 19.2108 18.7881 19.3709 18.4678 19.4881C18.1475 19.6053 17.7901 19.6639 17.3956 19.6639H15.5909C15.1963 19.6639 14.8389 19.6053 14.5186 19.4881C14.1983 19.3709 13.9249 19.2108 13.6983 19.0076C13.4756 18.8045 13.3038 18.5682 13.1827 18.2986C13.0616 18.0252 13.001 17.7361 13.001 17.4315V13.869C13.001 13.5643 13.0616 13.2772 13.1827 13.0076C13.3038 12.7342 13.4756 12.4959 13.6983 12.2928C13.9249 12.0897 14.1983 11.9295 14.5186 11.8123C14.8389 11.6951 15.1963 11.6365 15.5909 11.6365H17.3956ZM24.3331 11.6365C24.7276 11.6365 25.085 11.6951 25.4053 11.8123C25.7256 11.9295 25.9971 12.0897 26.2198 12.2928C26.4463 12.4959 26.6202 12.7342 26.7413 13.0076C26.8624 13.2772 26.9229 13.5643 26.9229 13.869V17.4315C26.9229 17.7361 26.8624 18.0252 26.7413 18.2986C26.6202 18.5682 26.4463 18.8045 26.2198 19.0076C25.9971 19.2108 25.7256 19.3709 25.4053 19.4881C25.085 19.6053 24.7276 19.6639 24.3331 19.6639H22.5284C22.1338 19.6639 21.7764 19.6053 21.4561 19.4881C21.1358 19.3709 20.8624 19.2108 20.6358 19.0076C20.4131 18.8045 20.2413 18.5682 20.1202 18.2986C19.9991 18.0252 19.9385 17.7361 19.9385 17.4315V13.869C19.9385 13.5643 19.9991 13.2772 20.1202 13.0076C20.2413 12.7342 20.4131 12.4959 20.6358 12.2928C20.8624 12.0897 21.1358 11.9295 21.4561 11.8123C21.7764 11.6951 22.1338 11.6365 22.5284 11.6365H24.3331ZM25.5401 13.1131L25.4581 12.6209L25.0889 12.2459L24.4854 12.1639H22.9151L22.3174 12.2459L21.9424 12.6209L21.8721 13.1131V16.0662L21.9424 16.5701L22.3291 16.9393L22.9151 17.0096H24.4854L25.0889 16.9393L25.4581 16.5701L25.5401 16.0662V13.1131ZM24.837 16.3299L24.4502 16.3885H22.9502L22.5694 16.3299L22.4815 15.9783V13.1717L22.5401 12.8494L22.9502 12.785H24.4502L24.8604 12.8494L24.919 13.1951V16.0018L24.837 16.3299ZM31.2706 11.6365C31.6651 11.6365 32.0225 11.6951 32.3428 11.8123C32.6631 11.9295 32.9346 12.0897 33.1573 12.2928C33.3838 12.4959 33.5577 12.7342 33.6788 13.0076C33.7999 13.2772 33.8604 13.5643 33.8604 13.869V17.4315C33.8604 17.7361 33.7999 18.0252 33.6788 18.2986C33.5577 18.5682 33.3838 18.8045 33.1573 19.0076C32.9346 19.2108 32.6631 19.3709 32.3428 19.4881C32.0225 19.6053 31.6651 19.6639 31.2706 19.6639H29.4659C29.0713 19.6639 28.7139 19.6053 28.3936 19.4881C28.0733 19.3709 27.7999 19.2108 27.5733 19.0076C27.3506 18.8045 27.1788 18.5682 27.0577 18.2986C26.9366 18.0252 26.876 17.7361 26.876 17.4315V13.869C26.876 13.5643 26.9366 13.2772 27.0577 13.0076C27.1788 12.7342 27.3506 12.4959 27.5733 12.2928C27.7999 12.0897 28.0733 11.9295 28.3936 11.8123C28.7139 11.6951 29.0713 11.6365 29.4659 11.6365H31.2706ZM30.3565 12.2576L30.0342 12.1639H29.2666L28.7745 12.2459L28.3995 12.6209V17.0096H29.0264V12.8377C29.0811 12.826 29.1299 12.8182 29.1729 12.8143C29.2159 12.8104 29.2627 12.8006 29.3135 12.785H29.9815C30.0245 12.8006 30.0655 12.8104 30.1045 12.8143C30.1475 12.8182 30.1905 12.826 30.2334 12.8377V15.3221H30.8604V12.8377L31.1124 12.785H31.7862C31.8331 12.8006 31.8799 12.8104 31.9268 12.8143C31.9737 12.8182 32.0225 12.826 32.0733 12.8377V17.0096H32.6944V12.6209L32.3252 12.2459L31.8331 12.1639H31.0655L30.7491 12.2576L30.5499 12.6619L30.3565 12.2576ZM38.7471 14.1795H36.7901V12.785H39.0811V12.1639H36.1631V17.0096H36.7901V14.7947H38.7471V14.1795ZM38.2081 11.6365C38.6026 11.6365 38.96 11.6951 39.2803 11.8123C39.6006 11.9295 39.8721 12.0897 40.0948 12.2928C40.3213 12.4959 40.4952 12.7342 40.6163 13.0076C40.7374 13.2772 40.7979 13.5643 40.7979 13.869V17.4315C40.7979 17.7361 40.7374 18.0252 40.6163 18.2986C40.4952 18.5682 40.3213 18.8045 40.0948 19.0076C39.8721 19.2108 39.6006 19.3709 39.2803 19.4881C38.96 19.6053 38.6026 19.6639 38.2081 19.6639H36.4034C36.0088 19.6639 35.6514 19.6053 35.3311 19.4881C35.0108 19.3709 34.7374 19.2108 34.5108 19.0076C34.2881 18.8045 34.1163 18.5682 33.9952 18.2986C33.8741 18.0252 33.8135 17.7361 33.8135 17.4315V13.869C33.8135 13.5643 33.8741 13.2772 33.9952 13.0076C34.1163 12.7342 34.2881 12.4959 34.5108 12.2928C34.7374 12.0897 35.0108 11.9295 35.3311 11.8123C35.6514 11.6951 36.0088 11.6365 36.4034 11.6365H38.2081ZM43.4639 12.1639H42.7315L44.1963 15.6443V17.0096H44.8174V15.6561L46.3057 12.1639H45.5733L44.5069 14.7947L43.4639 12.1639ZM45.1456 11.6365C45.5401 11.6365 45.8975 11.6951 46.2178 11.8123C46.5381 11.9295 46.8096 12.0897 47.0323 12.2928C47.2588 12.4959 47.4327 12.7342 47.5538 13.0076C47.6749 13.2772 47.7354 13.5643 47.7354 13.869V17.4315C47.7354 17.7361 47.6749 18.0252 47.5538 18.2986C47.4327 18.5682 47.2588 18.8045 47.0323 19.0076C46.8096 19.2108 46.5381 19.3709 46.2178 19.4881C45.8975 19.6053 45.5401 19.6639 45.1456 19.6639H43.3409C42.9463 19.6639 42.5889 19.6053 42.2686 19.4881C41.9483 19.3709 41.6749 19.2108 41.4483 19.0076C41.2256 18.8045 41.0538 18.5682 40.9327 18.2986C40.8116 18.0252 40.751 17.7361 40.751 17.4315V13.869C40.751 13.5643 40.8116 13.2772 40.9327 13.0076C41.0538 12.7342 41.2256 12.4959 41.4483 12.2928C41.6749 12.0897 41.9483 11.9295 42.2686 11.8123C42.5889 11.6951 42.9463 11.6365 43.3409 11.6365H45.1456Z" fill="#1B2B3B"/>
</svg>
